{"title":"Tirando.O.Atraso.2016.720p.BluRay.x264.DUAL-TTF","uid":14652511,"size":1052659485,"categoryP":"video","categoryS":"hd___movies","magnet":"?xt=urn:btih:a853f6f8e2501fa85fe65f49930735e0b50c6ce2&amp;dn=Tirando.O.Atraso.2016.720p.BluRay.x264.DUAL-TTF&amp;tr=udp%3A%2F%2Ftracker.leechers-paradise.org%3A6969&amp;tr=udp%3A%2F%2Fzer0day.ch%3A1337&amp;tr=udp%3A%2F%2Fopen.demonii.com%3A1337&amp;tr=udp%3A%2F%2Ftracker.coppersurfer.tk%3A6969&amp;tr=udp%3A%2F%2Fexodus.desync.com%3A6969","seeders":4,"leechers":0,"uploader":null,"files":3,"time":1463662961,"description":"Título: Dirty Grandpa (Original)\r\nAno produção: 2016\r\nDirigido por: Dan Mazer\r\nEstreia: 4 de Fevereiro de 2016 ( Brasil ) \r\nDuração: 102 minutos\r\nGênero: Comédia\r\nPaíses de Origem: EUA\r\nIMDB: http://www.imdb.com/title/tt1860213/\r\n\r\nVideo\r\nID : 1\r\nFormat : AVC\r\nFormat/Info : Advanced Video Codec\r\nFormat profile :   \r\nFormat settings, CABAC : Yes\r\nFormat settings, ReFrames : 4 frames\r\nCodec ID : V_MPEG4/ISO/AVC\r\nDuration : 1h 42mn\r\nBit rate : 1 000 Kbps\r\nWidth : 1 280 pixels\r\nHeight : 536 pixels\r\nDisplay aspect ratio : 2.40:1\r\nFrame rate mode : Constant\r\nFrame rate : 23.976 (24000/1001) fps\r\nColor space : YUV\r\nChroma subsampling : 4:2:0\r\nBit depth : 8 bits\r\nScan type : Progressive\r\nBits/(Pixel*Frame) : 0.061\r\nStream size : 721 MiB (72%)\r\n\r\nAudio #1\r\nID : 2\r\nFormat : AC-3\r\nFormat/Info : Audio Coding 3\r\nFormat profile : Dolby Digital\r\nMode extension : CM (complete main)\r\nFormat settings, Endianness : Big\r\nCodec ID : A_AC3\r\nDuration : 1h 42mn\r\nBit rate mode : Constant\r\nBit rate : 192 Kbps\r\nChannel(s) : 2 channels\r\nChannel positions : Front: L R\r\nSampling rate : 48.0 KHz\r\nFrame rate : 31.250 fps (1536 spf)\r\nCompression mode : Lossy\r\nDelay relative to video : -5ms\r\nStream size : 141 MiB (14%)\r\nTitle : PT-BR\r\nLanguage : Portuguese\r\nDefault : Yes\r\nForced : No\r\n\r\nAudio #2\r\nID : 3\r\nFormat : AC-3\r\nFormat/Info : Audio Coding 3\r\nFormat profile : Dolby Digital\r\nMode extension : CM (complete main)\r\nFormat settings, Endianness : Big\r\nCodec ID : A_AC3\r\nDuration : 1h 42mn\r\nBit rate mode : Constant\r\nBit rate : 192 Kbps\r\nChannel(s) : 2 channels\r\nChannel positions : Front: L R\r\nSampling rate : 48.0 KHz","torrent":{"xt":"urn:btih:a853f6f8e2501fa85fe65f49930735e0b50c6ce2","amp;dn":"Tirando.O.Atraso.2016.720p.BluRay.x264.DUAL-TTF","amp;tr":["udp%3A%2F%2Ftracker.leechers-paradise.org%3A6969","udp%3A%2F%2Fzer0day.ch%3A1337","udp%3A%2F%2Fopen.demonii.com%3A1337","udp%3A%2F%2Ftracker.coppersurfer.tk%3A6969","udp%3A%2F%2Fexodus.desync.com%3A6969"],"infoHash":"a853f6f8e2501fa85fe65f49930735e0b50c6ce2","infoHashBuffer":{"type":"Buffer","data":[168,83,246,248,226,80,31,168,95,230,95,73,147,7,53,224,181,12,108,226]},"announce":[],"urlList":[]}}